<?xml version="1.0" encoding="UTF-8" standalone="no"?>
<!-- Created with Inkscape (http://www.inkscape.org/) -->

<svg
    xmlns:dc="http://purl.org/dc/elements/1.1/"
    xmlns:cc="http://creativecommons.org/ns#"
    xmlns:rdf="http://www.w3.org/1999/02/22-rdf-syntax-ns#"
    xmlns:svg="http://www.w3.org/2000/svg"
    xmlns="http://www.w3.org/2000/svg"
    width="800"
    height="145.73"
    id="clouds"
    version="1.1">
  <g
      transform="translate(-190,-150)">
    <g
        id="stratocumulus"
        class="cloud"
        transform="translate(-50,-25)">
      <path
          class="cloud-basis"
          d="m 555.29141,248.45425 c 0.326,-0.883 0.502,-1.825 0.502,-2.805 0,-5.01 -4.617,-9.072 -10.312,-9.072 -1.045,0 -2.055,0.14 -3.005,0.393 -0.9,-7.752 -8.345,-13.801 -17.393,-13.801 -6.077,0 -11.431,2.727 -14.563,6.867 -0.09,0.011 -0.181,0.021 -0.27,0.032 -1.603,-1.384 -3.798,-2.239 -6.219,-2.239 -1.133,0 -2.214,0.189 -3.21,0.528 -3.203,-3.182 -7.883,-5.188 -13.094,-5.188 -1.18,0 -2.329,0.104 -3.44,0.302 -1.167,-9.046 -9.894,-16.074 -20.486,-16.074 -9.963,0 -18.275,6.214 -20.202,14.477 -0.701,-0.139 -1.431,-0.214 -2.182,-0.214 -5.324,0 -9.662,3.71 -9.862,8.35 -3.806,0.756 -6.96,3.019 -8.617,6.035 -2.343,-0.964 -4.957,-1.505 -7.714,-1.505 -6.464,0 -12.14,2.964 -15.369,7.433 -0.769,-0.128 -1.56,-0.197 -2.369,-0.197 -5.746,0 -10.603,3.342 -12.201,7.936 -1.185,-0.515 -2.517,-0.805 -3.927,-0.805 -4.901,0 -8.875,3.496 -8.875,7.809 0,4.313 3.974,7.811 8.875,7.811 3.042,0 5.726,-1.348 7.326,-3.4 2.289,1.922 5.388,3.104 8.802,3.104 2.209,0 4.286,-0.495 6.099,-1.363 3.155,2.312 7.212,3.703 11.64,3.703 4.564,0 8.736,-1.479 11.932,-3.92 4.37,4.732 11.038,7.76 18.511,7.76 7.408,0 14.027,-2.974 18.4,-7.64 0.245,0.158 0.495,0.314 0.75,0.464 4.368,4.396 10.792,7.176 17.952,7.176 7.348,0 13.919,-2.927 18.293,-7.525 0.056,-0.026 0.11,-0.05 0.165,-0.077 3.42,2.192 7.629,3.488 12.185,3.488 5.522,0 10.541,-1.904 14.254,-5.005 1.617,1.508 3.909,2.451 6.452,2.451 2.687,0 5.091,-1.05 6.719,-2.708 h 13.609 c 3.963,0 7.174,-2.826 7.174,-6.311 0,-3.237 -2.766,-5.902 -6.33,-6.27 z"
          style="fill:#ffffff" />
      <path
          class="cloud-shadow"
          d="m 517.76041,265.89025 c -2.186,-6.301 -8.847,-10.885 -16.725,-10.885 -6.077,0 -11.429,2.727 -14.563,6.866 -0.09,0.011 -0.18,0.021 -0.27,0.033 -1.6,-1.385 -3.796,-2.239 -6.22,-2.239 -1.132,0 -2.213,0.188 -3.208,0.527 -3.203,-3.183 -7.883,-5.188 -13.095,-5.188 -1.178,0 -2.328,0.104 -3.441,0.299 -1.166,-9.044 -9.893,-16.073 -20.486,-16.073 -9.962,0 -18.273,6.215 -20.201,14.479 -0.701,-0.14 -1.432,-0.214 -2.182,-0.214 -5.324,0 -9.663,3.709 -9.862,8.35 -1.283,0.254 -2.487,0.685 -3.591,1.253 3.105,2.17 7.034,3.471 11.309,3.471 4.564,0 8.736,-1.479 11.932,-3.92 4.37,4.732 11.038,7.76 18.511,7.76 7.408,0 14.027,-2.974 18.4,-7.64 0.245,0.158 0.495,0.314 0.75,0.464 4.368,4.396 10.792,7.176 17.952,7.176 7.348,0 13.919,-2.927 18.293,-7.525 0.056,-0.026 0.11,-0.05 0.165,-0.077 3.42,2.192 7.629,3.488 12.185,3.488 1.491,-0.001 2.945,-0.142 4.347,-0.405 z"
          style="fill:#e6f0f4" />
      <path
          class="cloud-outline"
          d="m 482.77141,270.73625 c -6.949,0 -13.565,-2.64 -18.156,-7.242 -0.163,-0.097 -0.33,-0.198 -0.493,-0.302 -4.608,4.799 -11.316,7.544 -18.453,7.544 -7.196,0 -13.938,-2.784 -18.551,-7.647 -3.328,2.458 -7.539,3.808 -11.892,3.808 -4.248,0 -8.386,-1.295 -11.676,-3.65 -1.858,0.857 -3.951,1.312 -6.063,1.312 -3.25,0 -6.347,-1.053 -8.756,-2.969 -1.735,2.05 -4.466,3.265 -7.372,3.265 -5.075,0 -9.206,-3.651 -9.206,-8.14 0,-4.487 4.131,-8.138 9.206,-8.138 1.302,0 2.557,0.234 3.736,0.698 1.804,-4.697 6.735,-7.828 12.392,-7.828 0.735,0 1.481,0.057 2.222,0.168 3.441,-4.641 9.226,-7.404 15.517,-7.404 2.637,0 5.183,0.478 7.568,1.421 1.714,-2.926 4.838,-5.106 8.448,-5.893 0.353,-4.734 4.769,-8.408 10.177,-8.408 0.649,0 1.3,0.056 1.936,0.163 1.013,-3.988 3.538,-7.609 7.141,-10.224 3.733,-2.711 8.46,-4.203 13.308,-4.203 10.532,0 19.392,6.864 20.764,16.023 1.05,-0.167 2.113,-0.251 3.163,-0.251 5.016,0 9.808,1.872 13.181,5.144 1.004,-0.32 2.053,-0.483 3.123,-0.483 2.363,0 4.601,0.788 6.315,2.22 3.327,-4.312 8.822,-6.88 14.735,-6.88 4.431,0 8.677,1.443 11.957,4.066 3.163,2.526 5.182,5.944 5.715,9.655 0.886,-0.207 1.801,-0.313 2.726,-0.313 5.867,0 10.642,4.218 10.642,9.401 0,0.86 -0.131,1.709 -0.391,2.529 3.572,0.543 6.218,3.295 6.218,6.543 0,3.661 -3.364,6.64 -7.503,6.64 h -13.473 c -1.748,1.724 -4.238,2.708 -6.855,2.708 -2.446,0 -4.729,-0.83 -6.463,-2.345 -3.894,3.161 -8.939,4.897 -14.243,4.897 -4.407,0 -8.617,-1.186 -12.192,-3.431 -4.608,4.798 -11.325,7.546 -18.452,7.546 z m -18.756,-8.392 0.231,0.149 c 0.247,0.158 0.495,0.311 0.737,0.455 l 0.038,0.021 0.031,0.029 c 4.468,4.499 10.927,7.079 17.718,7.079 6.987,0 13.568,-2.706 18.054,-7.424 l 0.044,-0.047 0.116,-0.052 c 0.035,-0.015 0.069,-0.029 0.104,-0.046 l 0.166,-0.08 0.153,0.101 c 3.505,2.246 7.654,3.434 12.006,3.434 5.251,0 10.237,-1.749 14.042,-4.927 l 0.223,-0.187 0.212,0.198 c 1.635,1.523 3.848,2.362 6.229,2.362 2.492,0 4.855,-0.951 6.484,-2.609 l 0.095,-0.099 h 13.749 c 3.774,0 6.845,-2.684 6.845,-5.981 0,-3.032 -2.595,-5.585 -6.035,-5.939 l -0.423,-0.045 0.147,-0.397 c 0.321,-0.866 0.483,-1.771 0.483,-2.69 0,-4.82 -4.479,-8.741 -9.983,-8.741 -0.993,0 -1.976,0.128 -2.92,0.38 l -0.368,0.099 -0.044,-0.38 c -0.895,-7.701 -8.231,-13.509 -17.065,-13.509 -5.762,0 -11.108,2.519 -14.3,6.736 l -0.086,0.111 -0.22,0.026 c -0.061,0.007 -0.122,0.015 -0.183,0.022 l -0.146,0.021 -0.112,-0.097 c -1.611,-1.393 -3.743,-2.16 -6.004,-2.16 -1.066,0 -2.111,0.172 -3.104,0.512 l -0.193,0.065 -0.146,-0.144 c -3.257,-3.237 -7.944,-5.094 -12.86,-5.094 -1.125,0 -2.265,0.099 -3.385,0.296 l -0.34,0.061 -0.044,-0.343 c -1.16,-9 -9.827,-15.787 -20.158,-15.787 -9.599,0 -17.959,5.981 -19.881,14.222 l -0.073,0.312 -0.312,-0.063 c -0.692,-0.137 -1.405,-0.207 -2.118,-0.207 -5.152,0 -9.339,3.529 -9.533,8.035 l -0.012,0.26 -0.254,0.05 c -3.632,0.722 -6.771,2.916 -8.394,5.87 l -0.142,0.259 -0.272,-0.113 c -2.384,-0.982 -4.938,-1.48 -7.587,-1.48 -6.154,0 -11.801,2.728 -15.104,7.295 l -0.119,0.166 -0.2,-0.033 c -0.771,-0.128 -1.55,-0.192 -2.315,-0.192 -5.506,0 -10.285,3.101 -11.891,7.714 l -0.116,0.336 -0.326,-0.143 c -1.188,-0.515 -2.465,-0.776 -3.795,-0.776 -4.712,0 -8.546,3.354 -8.546,7.479 0,4.124 3.834,7.48 8.546,7.48 2.827,0 5.468,-1.224 7.064,-3.272 l 0.211,-0.269 0.261,0.22 c 2.327,1.952 5.377,3.026 8.592,3.026 2.082,0 4.141,-0.461 5.956,-1.331 l 0.178,-0.086 0.16,0.117 c 3.203,2.346 7.267,3.639 11.444,3.639 4.314,0 8.481,-1.368 11.73,-3.853 l 0.239,-0.182 0.202,0.22 c 4.492,4.864 11.149,7.654 18.271,7.654 7.053,0 13.672,-2.747 18.159,-7.533 l 0.189,-0.2 z"
          style="fill:#6a8993" />
      <animateTransform
          attributeName="transform"
          dur="60s"
          type="translate"
          values="-50 -25; 25 0; 12 12; -50 -15"
          repeatCount="indefinite"/>
    </g>
    <g
        id="cumulus"
        class="cloud">
      <path
          class="cloud-basis"
          d="m 290.97478,247.0424 c 0,-8.073 -3.978,-15.094 -9.829,-18.673 -0.593,-3.941 -3.419,-7.018 -6.949,-7.485 0.363,-1.271 0.561,-2.629 0.561,-4.037 0,-7.215 -5.151,-13.062 -11.508,-13.062 -1.166,0 -2.292,0.197 -3.354,0.564 -1.004,-11.162 -9.311,-19.869 -19.41,-19.869 -9.426,0 -17.291,7.585 -19.114,17.672 -0.665,-0.171 -1.356,-0.261 -2.065,-0.261 -5.038,0 -9.143,4.528 -9.332,10.192 -5.351,1.371 -9.347,6.799 -9.347,13.286 0,0.889 0.078,1.756 0.22,2.597 -6.228,3.437 -10.522,10.688 -10.522,19.075 0,11.708 8.364,21.199 18.679,21.199 0.686,0 1.361,-0.043 2.027,-0.124 0.522,0.078 1.055,0.123 1.597,0.123 h 0 l 0,0.001 h 60.628 c 0.61,0 1.204,-0.08 1.774,-0.227 9.019,-1.501 15.944,-10.317 15.944,-20.971 z"
          style="fill:#ffffff" />
      <path
          class="cloud-shadow"
          d="m 269.50778,268.2414 c -0.521,-0.4 -1.061,-0.772 -1.617,-1.113 -0.592,-3.939 -3.419,-7.018 -6.949,-7.485 0.364,-1.272 0.561,-2.629 0.561,-4.037 0,-7.215 -5.151,-13.063 -11.507,-13.063 -1.166,0 -2.292,0.197 -3.354,0.564 -1.004,-11.161 -9.312,-19.87 -19.411,-19.87 -9.426,0 -17.291,7.588 -19.114,17.673 -0.664,-0.169 -1.355,-0.26 -2.065,-0.26 -5.038,0 -9.143,4.527 -9.331,10.192 -2.031,0.521 -3.867,1.628 -5.364,3.154 2.536,8.292 9.479,14.244 17.648,14.244 0.686,0 1.361,-0.043 2.027,-0.124 0.522,0.078 1.055,0.123 1.597,0.123 h 0 l 0,0.001 h 56.879 z"
          style="fill:#e6f0f4" />
      <path
          class="cloud-outline"
          d="m 273.25678,268.5704 h -61.083 l 0.004,-0.011 c -0.377,-0.017 -0.762,-0.053 -1.15,-0.11 -0.674,0.08 -1.354,0.121 -2.022,0.121 -10.48,0 -19.007,-9.656 -19.007,-21.528 0,-4.109 1.027,-8.106 2.968,-11.556 1.852,-3.292 4.45,-5.948 7.521,-7.695 -0.125,-0.803 -0.188,-1.616 -0.188,-2.421 0,-3.177 0.969,-6.285 2.728,-8.753 1.689,-2.367 4.036,-4.061 6.629,-4.789 0.304,-5.775 4.502,-10.267 9.651,-10.267 0.605,0 1.21,0.064 1.805,0.192 0.948,-4.858 3.334,-9.272 6.741,-12.462 3.542,-3.315 8.028,-5.143 12.633,-5.143 4.952,0 9.694,2.077 13.352,5.851 3.534,3.644 5.778,8.569 6.346,13.91 0.997,-0.303 2.026,-0.454 3.065,-0.454 6.527,0 11.837,6.006 11.837,13.391 0,1.282 -0.159,2.549 -0.476,3.769 3.429,0.637 6.195,3.678 6.835,7.554 6.084,3.79 9.858,11.006 9.858,18.873 0,5.191 -1.654,10.207 -4.658,14.12 -2.979,3.878 -7.079,6.428 -11.547,7.175 -0.608,0.156 -1.228,0.233 -1.842,0.233 z m -60.299,-0.657 h 60.299 c 0.564,0 1.134,-0.073 1.692,-0.217 l 0.028,-0.006 c 8.933,-1.487 15.67,-10.363 15.67,-20.648 0,-7.694 -3.707,-14.743 -9.673,-18.393 l -0.131,-0.079 -0.022,-0.152 c -0.571,-3.799 -3.313,-6.762 -6.667,-7.208 l -0.378,-0.051 0.105,-0.367 c 0.364,-1.271 0.548,-2.6 0.548,-3.945 0,-7.021 -5.014,-12.732 -11.178,-12.732 -1.105,0 -2.196,0.183 -3.246,0.547 l -0.397,0.138 -0.038,-0.42 c -1.004,-11.156 -9.208,-19.57 -19.083,-19.57 -9.065,0 -16.967,7.318 -18.79,17.402 l -0.063,0.348 -0.343,-0.088 c -0.649,-0.167 -1.317,-0.25 -1.983,-0.25 -4.864,0 -8.818,4.337 -9.002,9.875 l -0.008,0.245 -0.239,0.062 c -5.272,1.353 -9.1,6.806 -9.1,12.968 0,0.845 0.073,1.699 0.216,2.541 l 0.039,0.23 -0.204,0.114 c -6.289,3.47 -10.352,10.844 -10.352,18.786 0,11.509 8.231,20.871 18.349,20.871 0.657,0 1.325,-0.042 1.987,-0.123 l 0.044,-0.004 0.044,0.005 c 0.528,0.08 1.048,0.121 1.548,0.121 l 0.328,0 z"
          style="fill:#6a8993" />
      <animateTransform
          attributeName="transform"
          begin="0"
          dur="45s"
          type="translate"
          from="0 0"
          to="700 10"
          repeatCount="indefinite" />
      <animate
          attributeName="opacity"
          dur="45s"
          values="0;1;1;0"
          keyTime="0;6s;31s;45s"
          repeatCount="indefinite" />
    </g>
  </g>
</svg>
